<svg xmlns="http://www.w3.org/2000/svg" viewBox="0 0 64 80" x="0px" y="0px"><title>japan, japanese, castle, pagoda</title><g data-name="Layer 2"><path d="M28.0288,41.1245H24.7827a1,1,0,0,0-1,1v3.2461a1,1,0,0,0,1,1h3.2461a1,1,0,0,0,1-1V42.1245A1,1,0,0,0,28.0288,41.1245Zm-1,3.2461H25.7827V43.1245h1.2461Zm1-18.91H24.7827a1,1,0,0,0-1,1V29.707a1,1,0,0,0,1,1h3.2461a1,1,0,0,0,1-1V26.4609A1,1,0,0,0,28.0288,25.4609Zm-1,3.2461H25.7827V27.4609h1.2461Zm1,24.7246H24.7827a1,1,0,0,0-1,1v3.2461a1,1,0,0,0,1,1h3.2461a1,1,0,0,0,1-1V54.4316A1,1,0,0,0,28.0288,53.4316Zm-1,3.2461H25.7827V55.4316h1.2461ZM39.2173,25.4609H35.9712a1,1,0,0,0-1,1V29.707a1,1,0,0,0,1,1h3.2461a1,1,0,0,0,1-1V26.4609A1,1,0,0,0,39.2173,25.4609Zm-1,3.2461H36.9712V27.4609h1.2461Zm1,12.4175H35.9712a1,1,0,0,0-1,1v3.2461a1,1,0,0,0,1,1h3.2461a1,1,0,0,0,1-1V42.1245A1,1,0,0,0,39.2173,41.1245Zm-1,3.2461H36.9712V43.1245h1.2461ZM54.4414,50.397l-4.1392-.72A9.4624,9.4624,0,0,1,44.5747,46.33V39.792c2.9927-.1572,9.1489-.7647,10.2441-3.1016a.9993.9993,0,0,0-.6464-1.39l-4.96-1.3276a13.4105,13.4105,0,0,1-6.207-3.6626V23.4229c2.2553-.1641,7.4472-.899,9.0283-4.1934a1,1,0,0,0-.8687-1.4321A30.6045,30.6045,0,0,1,33,11V2.4932a1,1,0,0,0-2,0V11a30.6045,30.6045,0,0,1-18.1655,6.7978,1,1,0,0,0-.8687,1.4321c1.5811,3.2944,6.7725,4.0293,9.0279,4.1934V30.31a13.4057,13.4057,0,0,1-6.2061,3.6626L9.8276,35.3a.9993.9993,0,0,0-.6464,1.39c1.0952,2.3369,7.2514,2.9444,10.2441,3.1016V46.33a9.4624,9.4624,0,0,1-5.7275,3.3472l-4.1392.72a1,1,0,0,0-.8286.9853v2.4243a.9994.9994,0,0,0,.8452.9878l8.71,1.3648v5.3476a1,1,0,0,0,1,1H44.7158a1,1,0,0,0,1-1V56.1592l8.709-1.3648a.9994.9994,0,0,0,.8452-.9878V51.3823A1,1,0,0,0,54.4414,50.397ZM53.27,52.9512l-8.709,1.3647a1,1,0,0,0-.8452.9878v5.2031H20.2847V55.3037a1,1,0,0,0-.8452-.9878L10.73,52.9512v-.7281l3.31-.5756a11.4628,11.4628,0,0,0,7.1807-4.3658,1,1,0,0,0,.2041-.6054V38.833a1,1,0,0,0-.9692-.9995,31.5782,31.5782,0,0,1-8.0284-1.1587l2.8775-.77a15.4029,15.4029,0,0,0,7.4287-4.5269,1.0021,1.0021,0,0,0,.26-.6728V22.4692a1,1,0,0,0-.9854-1c-1.5015-.0214-5.0674-.4111-7.0654-1.8061A32.6739,32.6739,0,0,0,32,12.7642a32.6711,32.6711,0,0,0,17.0542,6.8984c-1.9976,1.3906-5.562,1.7832-7.0635,1.8066a1.0007,1.0007,0,0,0-.9848,1v8.2354a.9991.9991,0,0,0,.26.6728,15.4006,15.4006,0,0,0,7.4292,4.5269l2.877.77a31.5746,31.5746,0,0,1-8.0284,1.1587,1,1,0,0,0-.9692.9995v7.8433a1,1,0,0,0,.2041.6054A11.4628,11.4628,0,0,0,49.96,51.6475l3.3105.5756ZM33.623,41.1245H30.377a1,1,0,0,0-1,1v3.2461a1,1,0,0,0,1,1h3.246a1,1,0,0,0,1-1V42.1245A1,1,0,0,0,33.623,41.1245Zm-1,3.2461H31.377V43.1245h1.246Zm1,9.061H30.377a1,1,0,0,0-1,1v3.2461a1,1,0,0,0,1,1h3.246a1,1,0,0,0,1-1V54.4316A1,1,0,0,0,33.623,53.4316Zm-1,3.2461H31.377V55.4316h1.246Zm6.5943-3.2461H35.9712a1,1,0,0,0-1,1v3.2461a1,1,0,0,0,1,1h3.2461a1,1,0,0,0,1-1V54.4316A1,1,0,0,0,39.2173,53.4316Zm-1,3.2461H36.9712V55.4316h1.2461ZM33.623,25.4609H30.377a1,1,0,0,0-1,1V29.707a1,1,0,0,0,1,1h3.246a1,1,0,0,0,1-1V26.4609A1,1,0,0,0,33.623,25.4609Zm-1,3.2461H31.377V27.4609h1.246Z"/></g><text x="0" y="79" fill="#000000" font-size="5px" font-weight="bold" font-family="'Helvetica Neue', Helvetica, Arial-Unicode, Arial, Sans-serif">Created by NAFL Studio</text><text x="0" y="84" fill="#000000" font-size="5px" font-weight="bold" font-family="'Helvetica Neue', Helvetica, Arial-Unicode, Arial, Sans-serif">from the Noun Project</text></svg>